<?xml version="1.0" encoding="utf-8" ?>
<svg baseProfile="full" height="300mm" version="1.1" viewBox="0,0,200,300" width="200mm" xmlns="http://www.w3.org/2000/svg" xmlns:ev="http://www.w3.org/2001/xml-events" xmlns:xlink="http://www.w3.org/1999/xlink"><defs /><rect fill="#222222" height="300" width="200" x="0" y="0" /><text fill="#FFFFFF" style="font-size:12px; font-family:Arial; font-weight:bold;" x="10" y="20">Over 10km Runs</text><text fill="#FFFFFF" style="font-size:4px; font-family:Arial" x="10" y="280">ATHLETE</text><text fill="#FFFFFF" style="font-size:9px; font-family:Arial" x="10" y="290">liugezhou</text><text fill="#FFFFFF" style="font-size:4px; font-family:Arial" x="120" y="280">STATISTICS</text><text fill="#FFFFFF" style="font-size:3px; font-family:Arial" x="120" y="285">Number: 2</text><text fill="#FFFFFF" style="font-size:3px; font-family:Arial" x="120" y="290">Weekly: 1.0</text><text fill="#FFFFFF" style="font-size:3px; font-family:Arial" x="141" y="285">Total: 20.7 km</text><text fill="#FFFFFF" style="font-size:3px; font-family:Arial" x="141" y="290">Avg: 10.3 km</text><text fill="#FFFFFF" style="font-size:3px; font-family:Arial" x="167" y="285">Min: 10.1 km</text><text fill="#FFFFFF" style="font-size:3px; font-family:Arial" x="167" y="290">Max: 10.5 km</text><polyline fill="none" points="109.51377952750772,137.090622661839 109.51377952750772,137.090622661839 110.09842519694939,136.53503607673338 110.20472440961748,136.46558770764386 111.05511811026372,136.04889727945556 111.85236220480874,135.35441241666558 112.38385826768354,135.0071696031373 113.2342519685626,134.52102923594066 114.13779527554289,134.10433709493373 114.29724409477785,133.4098493778729 113.81889763800427,132.78480956086423 113.39370078733191,131.95142185370787 112.80905511812307,131.3958292332245 112.2244094486814,131.3263801097055 111.90551181090996,130.90968515511486 112.54330708668567,130.00684482770157 113.28740157489665,129.31235109557747 113.92519685043953,128.61785634420812 114.66929133865051,128.27060858623008 115.20078740175813,127.71501164336223 115.99803149607033,127.02051454677712 116.582677165512,126.53436597282416 117.32677165349014,126.04821689927485 118.07086614193395,125.4926173464628 118.70866141747683,124.93701714117196 119.55905511812307,124.72866689576767 120.19685039389879,124.1036156094342 120.78149606310762,123.61746403813595 121.41929133865051,122.8535105594492 122.05708661396056,122.5757089885301 122.69488188973628,122.02010535745649 123.38582677161321,121.53395164516405 124.12992125982419,121.04779743315885 124.82086614170112,120.42274128389545 125.5649606299121,120.00603672541911 126.3090551183559,119.4504300764238 126.94685039366595,118.89482277512434 127.69094488187693,118.40866585122421 128.32874015741982,117.92250842740759 129.01968503952958,117.29744814874721 129.65748031483963,116.81128958321642 130.3484251969494,116.4640331590781 131.03937007882632,115.83897095356951 131.73031496070325,115.35281088933698 132.42125984258018,114.93610186508158 133.11220472445711,114.31103764066938 133.80314960633405,113.75542430320638 134.44094488187693,113.33871387210093 135.13188976375386,112.71364753690432 135.7165354329627,112.22748426094768 136.51377952750772,112.08858037620666 137.5236220471561,112.01912841835292 138.21456692926586,110.49118276816444 138.42716535413638,110.07446946180426 139.11811023624614,109.72720809257589 139.80905511812307,109.31049411313143 140.55314960610121,109.10213698568987 141.19094488187693,108.47706505309907 141.6692913386505,107.7130871245754 142.30708661442623,107.29637137107784 142.8385826770682,106.9491079626896 143.4763779528439,106.53239153602044 144.1141732283868,106.18512756677228 144.80511811026372,105.76841046716436 145.2834645670373,105.14333412976703 145.92125984258018,104.72661611236981 146.45275590545498,104.24044462834718 146.93110236222856,103.75427264461177 147.6220472441055,103.4070066359127 148.20669291331433,102.99028708908008 148.73818897618912,102.50411382052698 149.37598425196484,102.087393478374 149.96062992117368,101.67067276927992 150.43897637794726,101.32340523108724 151.0236220471561,100.76777663998655 151.60826771636494,100.42050843909965 152.1929133858066,100.07323998337961 152.77755905501544,99.44815612025559 153.25590551178902,98.96197921145358 153.6279527558945,98.61470968503272 154.0,98.47580180299701 153.6279527558945,98.19798591680592 153.30905511812307,97.71180772315711 152.77755905501544,97.1561748899112 152.2992125984747,96.53108717256691 151.87401574803516,95.8365442956856 151.34251968492754,95.35036367489374 151.07677165372297,94.51691002000007 150.54527559038252,93.82236418567481 150.3858267716132,92.98890783861862 150.1200787401758,92.29435976099921 149.74803149607033,91.5998106635816 148.89763779519126,90.97471560398117 148.36614173231646,90.76635040066321 147.46259842510335,90.76635040066321 146.77165354322642,90.62744021383696 145.92125984258018,90.69689531234326 145.07086614170112,90.55798510534805 144.43307086639106,90.55798510534805 143.52952755917795,90.4885299866146 142.78543307096697,90.4885299866146 142.0944881888572,90.62744021383696 141.13779527554289,90.55798510534805 140.44685039366595,90.55798510534805 139.54330708668567,90.41907485766569 138.74606299214065,90.41907485766569 138.21456692926586,90.4885299866146 137.5236220471561,90.2107094094099 136.67322834627703,90.2107094094099 135.98228346463293,90.34961971850134 135.13188976375386,90.28016456915066 134.2814960628748,90.34961971850134 133.53740157489665,90.34961971850134 132.58070866158232,90.28016456915066 131.83661417337134,90.2107094094099 130.98622047249228,90.34961971850134 130.29527559061535,90.28016456915066 129.49803149630316,90.55798510534805 128.75393700785935,90.55798510534805 127.95669291331433,90.69689531234326 127.37204724410549,90.97471560398117 126.78740157489665,91.04417065135203 126.36220472445711,91.6692656193336 126.20275590545498,92.36381461468409 126.20275590545498,92.84999830464949 125.99015748035163,93.54454556660494 125.99015748035163,94.30854637661832 125.93700787401758,95.07254595321137 125.93700787401758,95.9059986291104 125.93700787401758,96.66999562544515 125.83070866158232,97.36453727874323 125.7244094486814,97.98962389485678 126.04330708668567,98.96197921145358 125.88385826768354,99.51760992369964 126.25590551178902,100.35105476828176 126.14960629912093,101.04559101714403 126.46850393689238,101.94848661628203 126.04330708668567,102.71247385410243 126.52165354345925,103.4070066359127 126.09645669301972,103.9626321271353 125.7244094486814,104.86552215879783 125.08661417313851,105.14333412976703 124.28937007859349,105.14333412976703 123.7578740157187,105.2127870969125 123.01377952750772,105.14333412976703 122.16338582686149,105.28224005378434 121.31299212621525,105.28224005378434 120.62204724410549,105.28224005378434 119.87795275612734,105.35169300055713 119.18700787401758,105.35169300055713 118.54921259870753,105.35169300055713 118.17716535436921,105.35169300055713 117.64566929149441,105.35169300055713 116.95472440938465,105.35169300055713 116.3169291340746,105.4905988634855 115.46653543319553,105.28224005378434 114.66929133865051,105.35169300055713 113.81889763800427,105.2127870969125 113.02165354345925,105.35169300055713 112.27755905524828,105.4211459372309 111.58661417337134,105.35169300055713 110.73622047249228,105.28224005378434 110.15157480328344,105.28224005378434 109.35433070873842,105.2127870969125 108.50393700809218,105.2127870969125 107.70669291331433,105.14333412976703 106.96259842533618,105.07388115208596 106.37795275612734,104.9349751668924 105.4744094486814,105.07388115208596 104.57086614193395,104.9349751668924 104.03937007859349,104.24044462834718 103.93307086615823,103.47645985797863 104.03937007859349,102.71247385410243 104.19881889759563,101.80957971300813 104.19881889759563,101.115044585953 104.19881889759563,100.35105476828176 104.09251968516037,99.44815612025559 104.14566929149441,98.68416361082927 104.19881889759563,98.12853191964678 104.14566929149441,97.01726657964173 104.41141732293181,96.25327014405048 104.19881889759563,95.41981807991397 104.19881889759563,94.72527357126819 104.19881889759563,93.82236418567481 104.19881889759563,92.98890783861862 104.2519685041625,92.224904897128 104.14566929149441,91.32199073917582 104.30511811026372,90.4885299866146 104.19881889759563,89.6550677655905 104.30511811026372,88.75214870239142 104.19881889759563,87.91868342235102 104.46456692903303,87.2935834984819 104.30511811026372,86.5990270585753 104.19881889759563,85.9044695989869 104.2519685041625,85.14045521558728 104.19881889759563,84.30698357170331 104.46456692903303,83.54296660822001 104.30511811026372,82.77894841050147 104.2519685041625,81.87601622240618 104.46456692903303,80.97308231104398 104.46456692903303,80.20905996271176 104.51771653536707,79.58394985087216 104.46456692903303,78.75046841666335 104.51771653536707,77.91698551390436 104.51771653536707,77.15295822950429 104.30511811026372,76.38892971092719 103.98622047249228,75.76381455088267 103.13582677161321,75.90272910214844 102.55118110240437,75.6248999586096 102.8169291340746,76.52784407901345 102.71062992140651,77.22241530613974 102.71062992140651,77.91698551390436 102.60433070873842,78.61155470146332 102.60433070873842,79.44503638043534 102.71062992140651,80.20905996271176 102.8169291340746,81.11199533272884 103.02952755917795,81.80655982892495 102.8169291340746,82.50112330564298 103.18897637818009,82.98731713238521 102.60433070873842,83.68187887515523 102.71062992140651,84.51535162035725 102.97637795261107,85.20991111957119 102.87007874017581,85.97392539083376 103.02952755917795,86.73793842815212 102.87007874017581,87.36303908628179 103.02952755917795,88.12704988007317 102.87007874017581,89.02997013638378 102.8169291340746,89.79397823792533 102.76377952774055,90.28016456915066 102.71062992140651,91.04417065135203 102.76377952774055,91.87763042494771 102.76377952774055,92.57217911450425 102.97637795261107,93.54454556660494 102.97637795261107,94.37800093466649 102.87007874017581,95.14200039886055 102.55118110240437,95.8365442956856 102.44488188996911,96.39217867868138 102.49803149607033,97.1561748899112 102.33858267753385,97.78126178137609 102.44488188996911,98.54525574896252 102.23228346463293,99.30924848321592 102.07283464563079,100.0037862615136 102.33858267753385,100.76777663998655 102.33858267753385,101.67067276927992 102.33858267753385,102.36520708078751 102.28543307096697,103.12919364549452 102.12598425196484,104.03208526779781 101.4350393700879,104.44880389672471 100.58464566944167,104.58771002484718 99.73425196879543,104.58771002484718 98.77755905524828,104.86552215879783 98.08661417337134,104.51825696596643 97.3425196853932,104.79606914072065 96.65157480328344,104.72661611236981 95.90748031507246,104.79606914072065 95.11023622052744,104.86552215879783 94.31299212598242,104.9349751668924 93.51574803167023,104.86552215879783 92.77165354345925,104.79606914072065 91.97440944891423,104.58771002484718 91.2834645670373,104.9349751668924 90.32677165372297,104.72661611236981 89.68897637794726,104.86552215879783 88.94488188996911,104.79606914072065 88.25393700809218,104.86552215879783 87.56299212598242,104.72661611236981 86.65944881900214,104.9349751668924 85.9685039371252,105.07388115208596 85.38385826791637,104.9349751668924 84.5334645670373,104.86552215879783 83.84251968516037,104.72661611236981 83.15157480328344,104.79606914072065 82.35433070873842,104.65716307371622 81.66338582686149,104.65716307371622 81.0255905513186,104.51825696596643 80.28149606310762,104.58771002484718 79.53740157489665,104.44880389672471 78.95275590568781,104.3098977280606 77.99606299214065,104.37935081752948 77.14566929149441,104.37935081752948 76.40157480328344,104.24044462834718 75.5511811026372,104.17099151809816 75.33858267730102,103.47645985797863 75.76377952774055,102.71247385410243 75.76377952774055,101.94848661628203 75.65748031530529,101.184498144401 75.39173228340223,100.28160108736483 75.12598425196484,99.51760992369964 75.12598425196484,98.82307143154321 75.17913385853171,98.12853191964678 75.17913385853171,97.36453727874323 75.28543307096697,96.46163293079007 75.28543307096697,95.48927247466054 75.23228346463293,94.65581906447187 75.28543307096697,93.89181881488184 75.39173228340223,93.05836259038188 75.07283464563079,92.29435976099921 75.23228346463293,91.5998106635816 75.39173228340223,90.835805478564 74.96653543319553,90.00234386962256 75.23228346463293,89.30779140698723 75.12598425196484,88.47432710559224 75.23228346463293,87.84922791598365 75.39173228340223,87.01576104486594 75.33858267730102,86.04338117255247 75.71062992117368,85.48773463373072 75.44488188996911,84.654263601813 75.44488188996911,83.75133499337244 75.44488188996911,82.91786090182723 75.44488188996911,82.22329803733737 75.33858267730102,81.32036478861119 75.44488188996911,80.69525614532176 75.76377952774055,79.93123334823758 75.92322834650986,79.02829572444898 76.13582677207887,78.47264094551792 76.13582677207887,77.70861455862178 76.13582677207887,76.87512981996406 76.24212598451413,75.97218636263278 75.81692913384177,75.34707065171096 75.5511811026372,75.06924118168536 75.44488188996911,74.37466679268982 75.87007874017581,73.68009138369234 75.65748031530529,72.70768409781158 75.5511811026372,71.80473268526839 75.23228346463293,71.04069552832516 75.01968503952958,70.48503136649379 75.12598425196484,69.65153389950865 74.91338582686149,68.74857665318996 74.86023622052744,67.84561768302228 74.43503937032074,67.28994976764079 74.59448818909004,66.31752934516408 74.64763779519126,65.62294210522668 74.59448818909004,64.85889496305026 74.59448818909004,64.09484658698784 74.541338582756,63.261337860050844 74.48818897642195,62.4278276640689 74.32874015741982,61.73323471221374 73.95669291354716,61.038640740473056 74.22244094498456,60.20512662784313 74.06299212598242,59.37161104660481 73.90354330721311,58.74647339669173 73.90354330721311,57.98241514706751 73.69094488187693,57.21835566329537 73.7440944884438,56.523755061411066 73.7440944884438,55.7596932213055 73.58464566920884,55.065090477408376 73.90354330721311,54.37048671362572 73.79724409454502,53.74534245399991 73.7440944884438,52.84235484257806 73.58464566920884,52.07828705574502 73.53149606334046,51.45313976641046 73.58464566920884,50.7585306983965 73.58464566920884,49.924998470174614 73.42519685067236,49.16092597041279 73.42519685067236,48.396852236648556 73.63779527577572,47.63277726850356 73.58464566920884,46.93816258982406 73.69094488187693,46.17408526543295 73.42519685067236,45.34054495804594 73.31889763777144,44.645926913275616 73.26574803167023,43.673459936573636 73.05314960656688,43.18722569849342 72.94685039389879,42.90937733816099 72.09645669301972,42.90937733816099 71.35236220480874,42.90937733816099 71.0334645670373,43.673459936573636 70.98031496070325,44.2291555966076 70.82086614193395,45.132159651693655 71.1929133858066,45.75731529534096 71.35236220480874,46.660316432942636 71.51181102381088,47.354931519483216 71.83070866158232,47.98008422521525 72.09645669301972,48.60523610468954 72.04330708668567,49.36930950192618 72.09645669301972,50.202842709375545 72.3090551183559,50.897452593635535 72.36220472468995,51.66152228802093 72.04330708668567,52.217208563233726 72.46850393735804,52.981276125705335 72.52165354322642,53.81480296805967 72.89370078756474,54.43994713600841 72.46850393735804,55.065090477408376 72.52165354322642,55.96807384554995 72.52165354322642,56.66267526338925 72.68110236222856,57.496195618325146 72.7342519685626,58.19079479223001 73.15944881900214,58.954852705064695 72.8405511812307,59.57999007971375 73.0,60.34404574861401 73.10629921243526,61.17755961653893 72.89370078756474,61.73323471221374 73.21259842533618,62.56674613209907 73.05314960656688,63.261337860050844 73.15944881900214,63.95592856782605 73.10629921243526,64.65051825577393 73.21259842533618,65.41456573421601 73.37204724410549,66.1786119788012 73.42519685067236,66.73428119966411 73.37204724410549,67.56778380690957 73.37204724410549,68.5402016590815 73.42519685067236,69.16532636561897 73.26574803167023,70.06828281658818 73.47834645677358,70.76286352894385 73.47834645677358,71.52690113458084 73.58464566920884,72.08256407268345 73.21259842533618,72.98551495495485 72.36220472468995,73.05497264364385 71.51181102381088,73.19388799046283 70.82086614193395,73.33280329679837 70.28937007882632,73.6106337865931 69.2263779528439,73.68009138369234 68.42913385853171,73.6106337865931 67.6850393700879,73.68009138369234 66.9940944884438,73.74954897057614 66.19685039389879,73.74954897057614 65.61220472445711,73.74954897057614 64.8149606299121,73.68009138369234 64.07086614193395,73.6106337865931 63.48622047249228,73.81900654706988 62.63582677184604,73.95792166967294 61.94488188973628,73.888464113581 61.57283464586362,73.68009138369234 60.56299212598242,73.6106337865931 60.031496063340455,73.6106337865931 59.34055118099786,73.6106337865931 58.59645669301972,73.54117617948214 57.63976377970539,73.6106337865931 57.16141732316464,73.6106337865931 56.47047244105488,73.54117617948214 55.77952755917795,73.47171856215573 54.92913385853171,73.54117617948214 54.13188976398669,73.40226093467209 53.387795275542885,73.54117617948214 52.803149606566876,73.54117617948214 52.112204724457115,73.47171856215573 51.31496062991209,73.40226093467209 50.46456692926586,73.33280329679837 49.77362204762176,73.26334564894205 49.29527559084818,73.40226093467209 48.285433070966974,73.54117617948214 47.59448818909004,73.6106337865931 47.86023622052744,73.95792166967294 48.17913385853171,74.44412427744828 48.76377952774055,74.72195411467692 49.77362204762176,74.65249667072203 50.46456692926586,74.65249667072203 51.31496062991209,74.51358175196219 51.633858267683536,74.72195411467692 52.218503937125206,74.93032638539444 52.803149606566876,74.79141154835816 53.65354330721311,74.93032638539444 54.39763779542409,74.86086897208588 55.19488188996911,75.06924118168536 55.93897637818009,74.99978378851665 56.73622047249228,74.99978378851665 57.5334645670373,75.06924118168536 58.171259842580184,75.1386985645513 59.02165354345925,74.99978378851665 59.87204724433832,74.99978378851665 60.66929133865051,74.72195411467692 60.98818897642195,75.2081559370854 61.891732283635065,74.93032638539444 62.688976377947256,74.79141154835816 63.37992125982419,74.99978378851665 64.0177165355999,75.06924118168536 64.76181102381088,74.99978378851665 65.39960629935376,74.99978378851665 66.35629921266809,74.86086897208588 67.10039370087907,74.86086897208588 67.89763779542409,74.79141154835816 68.58858267706819,74.93032638539444 69.4921259842813,74.86086897208588 70.02362204738893,75.2081559370854 70.87401574803516,75.2081559370854 71.35236220480874,75.48598532556207 72.20275590545498,75.27761329940404 73.10629921243526,75.34707065171096 73.7440944884438,75.83327183156507 73.79724409454502,76.31947251176462 73.7440944884438,77.15295822950429 73.90354330721311,77.98644247846096 73.90354330721311,78.75046841666335 74.06299212598242,79.58394985087216 74.06299212598242,80.34797320875805 74.43503937032074,80.76471270210459 74.32874015741982,81.80655982892495 74.38188976398669,82.5705795972608 74.59448818909004,83.33459813115769 74.32874015741982,83.95970328667318 74.2755905513186,84.7237195771886 74.22244094498456,85.55719048669562 74.06299212598242,86.18229270511074 74.22244094498456,87.0852166734694 74.0098425198812,87.84922791598365 74.11614173231646,88.6826933187549 74.06299212598242,89.37724669912132 74.11614173231646,90.2107094094099 74.16929133865051,90.97471560398117 74.16929133865051,91.94708533975063 74.22244094498456,92.64163392735645 74.16929133865051,93.33618149501854 74.2755905513186,94.23909180855844 74.2755905513186,94.79472806796548 74.11614173231646,95.62818123362376 74.06299212598242,96.32272441653186 74.22244094498456,97.08672073975322 73.90354330721311,97.78126178137609 73.63779527577572,98.47580180299701 73.79724409454502,99.37870230685803 73.85039370087907,100.14269369476824 73.69094488187693,100.83723024954088 73.90354330721311,101.67067276927992 73.90354330721311,101.80957971300813 73.95669291354716,102.92083379568066 73.63779527577572,103.54591306994553 72.94685039389879,103.9626321271353 71.88385826791637,104.03208526779781 71.1929133858066,104.17099151809816 70.28937007882632,104.37935081752948 69.54527559061535,104.51825696596643 68.74803149630316,104.65716307371622 67.79133858298883,104.72661611236981 67.10039370087907,104.79606914072065 66.40944881923497,104.65716307371622 65.7185039371252,104.79606914072065 65.02755905524828,104.9349751668924 64.23031496070325,104.9349751668924 63.43307086615823,104.79606914072065 62.63582677184604,104.72661611236981 61.998031496303156,104.65716307371622 61.307086614193395,104.72661611236981 60.56299212598242,104.72661611236981 59.87204724433832,104.65716307371622 59.12795275612734,104.51825696596643 58.43700787401758,104.65716307371622 57.85236220480874,104.65716307371622 57.001968504162505,104.51825696596643 56.311023622052744,104.44880389672471 55.620078740408644,104.51825696596643 54.663385826861486,104.51825696596643 53.866141732316464,104.51825696596643 53.22834645677358,104.3098977280606 52.43110236246139,104.37935081752948 51.68700787425041,104.3098977280606 50.88976377970539,104.17099151809816 50.251968504162505,104.03208526779781 49.454724409850314,104.24044462834718 48.65748031507246,104.17099151809816 48.07283464586362,103.61536627158057 47.59448818909004,103.12919364549452 47.2755905513186,102.36520708078751 47.16929133865051,101.53176578463172 47.16929133865051,100.76777663998655 47.06299212621525,99.79542503517587 47.116141732549295,99.03143308626022 47.06299212621525,98.19798591680592 47.009842519881204,97.36453727874323 47.06299212621525,96.39217867868138 46.95669291354716,95.41981807991397 47.06299212621525,94.44745548249921 47.222440945217386,93.75290954622324 47.16929133865051,92.78054352244362 47.222440945217386,92.08599513876834 46.74409448844381,91.53035569761414 47.116141732549295,90.69689531234326 47.06299212621525,89.79397823792533 47.222440945217386,89.02997013638378 47.16929133865051,88.19650534566608 47.06299212621525,87.43249466386624 47.2755905513186,86.73793842815212 47.222440945217386,85.9044695989869 47.222440945217386,85.27936701345607 47.38188976375386,84.58480761616374 47.328740157652646,83.89024719916051 47.328740157652646,83.26514195188065 47.38188976375386,82.50112330564298 47.2755905513186,81.73710342531558 47.222440945217386,81.04253882681951 47.328740157652646,80.20905996271176 47.328740157652646,79.5144931206014 47.38188976375386,78.81992525883834 47.2755905513186,78.40318405235303 46.69094488210976,78.12535637724795 46.21259842533618,78.33372714879806 46.31889763777144,78.81992525883834 46.37204724433832,79.58394985087216 46.531496063107625,80.48688641402987 46.69094488210976,81.18145182830631 46.425196850439534,81.80655982892495 46.47834645677358,82.50112330564298 46.47834645677358,83.19568576224265 46.531496063107625,83.82079110128689 46.425196850439534,84.51535162035725 46.531496063107625,85.07099930130062 46.425196850439534,85.9044695989869 46.47834645677358,86.73793842815212 46.425196850439534,87.43249466386624 46.637795275775716,88.26596080089803 46.531496063107625,89.09942546940874 46.47834645677358,89.79397823792533 46.37204724433832,90.62744021383696 46.21259842533618,91.18308071576757 46.21259842533618,91.80817550004576 46.37204724433832,92.57217911450425 46.26574803190306,93.33618149501854 46.26574803190306,94.03072804311523 46.26574803190306,94.5863645473728 46.21259842533618,95.35036367489374 46.31889763777144,95.9754529526399 46.47834645677358,96.66999562544515 46.15944881900214,97.43399138806853 46.37204724433832,98.19798591680592 46.15944881900214,98.89252532666433 46.0,99.51760992369964 46.053149606334046,100.21214739629067 46.31889763777144,101.04559101714403 46.21259842533618,101.60121928199078 46.37204724433832,102.43466045576497 46.26574803190306,103.26810016104719 46.37204724433832,103.9626321271353 46.531496063107625,104.17099151809816 47.222440945217386,103.9626321271353 47.91338582709432,104.10153839804116 47.91338582709432,104.9349751668924 48.44488188973628,105.28224005378434 49.188976377947256,105.28224005378434 49.98622047249228,105.35169300055713 50.78346456727013,105.4211459372309 51.58070866181515,105.35169300055713 52.43110236246139,105.35169300055713 53.22834645677358,105.28224005378434 54.078740157652646,105.2127870969125 54.769685039296746,105.28224005378434 55.51377952774055,105.28224005378434 56.15157480328344,105.4905988634855 56.78937007882632,105.28224005378434 57.480314960703254,105.28224005378434 58.22440944914706,105.28224005378434 58.8090551183559,105.4905988634855 59.76574803167023,105.4211459372309 60.40354330721311,105.28224005378434 61.200787401758134,105.4905988634855 61.94488188973628,105.35169300055713 62.84842519694939,105.4211459372309 63.53937007882632,105.35169300055713 64.17716535436921,105.35169300055713 64.92125984234735,105.35169300055713 65.5590551183559,105.35169300055713 66.25,105.35169300055713 66.94094488187693,105.4905988634855 67.73818897665478,105.35169300055713 68.26968503952958,105.4211459372309 68.96062992117368,105.35169300055713 69.65157480305061,105.35169300055713 70.44881889782846,105.35169300055713 71.08661417337134,105.62950468595955 71.93700787401758,105.5600517798157 72.7342519685626,105.62950468595955 73.42519685067236,105.62950468595955 74.06299212598242,105.69895758168423 74.86023622052744,105.62950468595955 75.65748031530529,105.69895758168423 76.40157480328344,105.69895758168423 77.03937007882632,105.62950468595955 77.73031496070325,105.5600517798157 78.36811023624614,105.5600517798157 79.2185039371252,105.62950468595955 79.90944881900214,105.69895758168423 80.49409448821098,105.69895758168423 81.291338582756,105.76841046716436 82.03543307096697,105.69895758168423 82.83267716527916,105.62950468595955 83.68307086615823,105.62950468595955 84.10826771659777,105.62950468595955 84.7992125984747,105.76841046716436 85.54330708645284,105.76841046716436 86.23425196879543,105.76841046716436 86.92519685043953,105.90731620779843 87.6161417325493,105.90731620779843 88.3070866141934,105.76841046716436 89.15748031530529,105.83786334251636 89.74212598451413,105.76841046716436 90.43307086615823,105.83786334251636 91.17716535436921,105.76841046716436 91.86811023647897,105.83786334251636 92.7185039371252,105.76841046716436 93.4094488187693,105.69895758168423 93.9940944884438,105.76841046716436 94.84448818909004,105.76841046716436 95.42913385829888,105.83786334251636 96.0669291340746,105.83786334251636 96.75787401595153,105.83786334251636 97.3425196853932,105.69895758168423 98.19291338603944,105.83786334251636 98.88385826768354,105.83786334251636 99.5748031497933,105.90731620779843 100.31889763777144,105.90731620779843 101.11614173231646,105.97676906295237 101.8070866141934,105.90731620779843 102.49803149607033,105.90731620779843 103.29527559084818,105.97676906295237 104.03937007859349,105.90731620779843 104.73031496070325,105.90731620779843 105.52755905524828,105.83786334251636 106.27165354322642,105.90731620779843 106.90944881900214,105.83786334251636 107.7598425198812,105.90731620779843 108.4507874015253,105.90731620779843 109.14173228340223,105.90731620779843 109.832677165512,106.1156747424684 110.52362204738893,106.18512756677228 111.32086614170112,106.18512756677228 112.0649606299121,106.25458038097713 112.70275590545498,106.25458038097713 113.39370078733191,106.25458038097713 114.13779527554289,106.18512756677228 114.66929133865051,106.32403318517026 115.46653543319553,106.25458038097713 116.15748031507246,106.18512756677228 116.84842519671656,106.25458038097713 117.53937007882632,106.32403318517026 118.17716535436921,106.04622190771624 118.97440944891423,106.1156747424684 119.77165354345925,105.90731620779843 120.62204724410549,106.18512756677228 121.31299212621525,105.97676906295237 122.00393700785935,105.90731620779843 122.85433070873842,105.97676906295237 123.43897637818009,105.90731620779843 124.18307086615823,106.25458038097713 125.08661417313851,106.18512756677228 125.83070866158232,106.1156747424684 126.46850393689238,105.62950468595955 126.78740157489665,105.07388115208596 126.94685039366595,104.24044462834718 126.94685039366595,103.54591306994553 127.0,102.92083379568066 126.62795275612734,102.22630029989523 126.68110236222856,101.46231227705721 126.78740157489665,100.76777663998655 126.62795275612734,100.14269369476824 126.78740157489665,99.44815612025559 126.52165354345925,98.75361752626486 126.57480314956047,98.12853191964678 126.57480314956047,97.36453727874323 126.62795275612734,96.46163293079007 126.78740157489665,95.76708995172521 126.78740157489665,95.14200039886055 126.68110236222856,94.30854637661832 126.52165354345925,93.54454556660494 126.57480314956047,92.78054352244362 126.62795275612734,92.01654024425079 126.78740157489665,91.32199073917582 127.47834645654075,90.90526054648217 128.1692913386505,91.04417065135203 128.8070866141934,90.835805478564 129.55118110240437,90.76635040066321 130.3484251969494,90.76635040066321 131.03937007882632,90.62744021383696 131.9429133858066,90.55798510534805 132.6338582674507,90.4885299866146 133.37795275612734,90.55798510534805 134.01574803167023,90.76635040066321 134.75984251964837,90.41907485766569 135.4507874015253,90.55798510534805 136.24803149607033,90.4885299866146 136.88582677138038,90.28016456915066 137.5236220471561,90.34961971850134 138.32086614170112,90.34961971850134 139.0649606299121,90.4885299866146 139.75590551178902,90.41907485766569 140.44685039366595,90.4885299866146 141.0314960628748,90.41907485766569 141.72244094498456,90.41907485766569 142.3602362202946,90.4885299866146 143.15748031483963,90.4885299866146 143.95472440961748,90.41907485766569 144.59251968492754,90.34961971850134 145.4429133858066,90.34961971850134 146.18700787401758,90.62744021383696 146.93110236222856,90.62744021383696 147.6220472441055,90.41907485766569 148.20669291331433,90.69689531234326 148.6850393700879,90.835805478564 149.37598425196484,90.97471560398117 149.96062992117368,91.11362568862387 150.3858267716132,92.01654024425079 150.70472440938465,92.5027242913493 151.1299212598242,93.54454556660494 151.39566929126158,94.44745548249921 152.0866141731385,95.00309149708482 152.40551181090996,95.9059986291104 152.99015748035163,96.46163293079007 153.46850393689238,97.01726657964173 153.57480314956047,97.85071582952514 152.72440944891423,98.33689388036146 152.0866141731385,98.96197921145358 151.28937007882632,99.44815612025559 150.65157480328344,100.0037862615136 150.01377952774055,100.5594157501182 149.37598425196484,101.115044585953 148.6850393700879,101.53176578463172 147.99409448821098,101.94848661628203 147.46259842510335,102.50411382052698 146.7185039371252,102.8513804920367 146.24015748035163,103.54591306994553 145.60236220480874,103.9626321271353 144.75196850392967,104.37935081752948 144.2736220471561,104.79606914072065 143.6358267716132,105.4211459372309 142.78543307096697,105.83786334251636 142.4133858268615,106.39348597885692 141.82874015765265,106.81020252790768 141.35039370087907,107.29637137107784 140.6062992126681,107.7130871245754 140.1279527558945,108.26870755848358 139.38385826768354,108.68542245571734 138.5866141731385,109.17158937180648 138.21456692926586,109.65775578815374 137.41732283472084,110.07446946180426 136.7263779528439,110.49118276816444 136.51377952750772,111.11625203979202 135.98228346463293,111.3246082800033 135.07874015741982,112.64419567107689 134.49409448821098,112.92200307387975 133.59055118099786,113.06090671409038 133.11220472445711,113.47761739004636 132.58070866158232,113.75542430320638 132.0492125984747,114.31103764066938 131.4114173229318,114.79719877539901 130.8799212598242,115.28335941070691 130.18897637794726,115.90842235047603 129.49803149630316,116.3251305182057 128.8070866141934,116.53348446451128 128.38188976375386,117.22799695574213 127.79724409454502,117.6447039610357 127.10629921266809,118.13086167024449 126.57480314956047,118.6170188797405 125.83070866158232,119.10317558958195 125.24606299214065,119.38097919951542 124.55511811026372,119.65878264620551 124.12992125982419,120.2143890504376 123.54527559084818,120.70054411879391 123.0669291340746,121.25614929958829 122.42913385829888,121.53395164516405 121.791338582756,121.8812043479411 121.41929133865051,122.36735770347877 120.72834645677358,122.78406018210808 120.03740157466382,123.13131196718314 119.45275590545498,123.40911321164458 118.92125984258018,124.03416541547631 118.33661417313851,124.31196612989879 117.69881889759563,124.79811698760022 117.06102362205274,125.28426734579261 116.68897637818009,125.77041720433044 115.99803149607033,126.25656656350475 115.36023622076027,126.67326561635127 114.7755905513186,127.02051454677712 114.29724409477785,127.43721292697592 113.7657480314374,127.99281019627233 113.02165354345925,128.27060858623008 112.59645669301972,128.82620487667737" stroke="#4dd2ff" stroke-linecap="round" stroke-linejoin="round" stroke-width="0.5"><title>2020-09-08 10.5km</title></polyline><polyline fill="none" points="92.49298154958524,264.0 92.49298154958524,264.0 92.70444685802795,263.77894669459783 92.91591216623783,263.5578932595381 93.67718727700412,262.8394686986867 94.18470401735976,262.17630634867237 95.24203055957332,261.2920880650927 95.41120280628093,261.23682435334194 96.04559873160906,260.79471436774475 96.6799946569372,260.2420761556714 97.27209752076305,259.74470107111847 97.86420038458891,259.35785332875093 98.45630324818194,258.805213007523 99.0484061120078,258.36310016625794 99.64050897560082,257.97625100420555 100.14802571595646,257.5341371894465 100.78242164151743,257.0367585271888 101.33223144337535,256.64990800226224 101.88204124569893,256.20779262989527 102.43185104755685,255.76567673817044 103.06624697288498,255.37882490703487 103.61605677497573,254.99197267837008 104.16586657706648,254.54985535875312 104.75796944065951,254.10773751989473 105.30777924275026,253.6656191619113 105.857589044841,253.22350028457004 106.40739884669892,252.78138088822016 106.87262252531946,252.39452599015203 107.46472538891248,252.06293576137978 107.97224212926812,251.62081500180648 108.4797588698566,251.28922409148072 108.98727561021224,250.84710242316942 109.53708541230299,250.40498023567488 110.0446021524258,250.07338825424085 110.50982583104633,249.7417959808954 110.89046338619664,249.29967249542824 111.6517384967301,249.29967249542824 112.11696217558347,248.91281401953893 112.7090650391765,248.69175185484346 113.25887484126724,248.3048927540658 113.76639158139005,247.75223620663746 114.31620138371363,247.36537614036934 114.69683893886395,246.81271821353585 115.07747649401426,246.370591287734 115.5849932343699,245.9284638427489 116.00792385125533,245.54160190245602 116.43085446814075,245.26527170147165 116.853785085259,244.87840907956706 117.27671570214443,244.60207839182112 117.82652550423518,244.27048129905597 118.2494561211206,243.93888391397195 118.75697286147624,243.60728623677278 119.26448960183188,243.22042191101355 119.6874202187173,242.83355718763778 120.15264389710501,242.39142558840103 120.66016063769348,242.11509307520464 121.16767737804912,241.72822721573175 121.59060799470171,241.3966275912535 122.09812473529018,240.95449430428562 122.56334841367789,240.56762725222507 123.07086515426636,240.23602660535835 123.53608883265406,239.9596925099031 124.04360557324253,239.62809132761322 124.42424312839285,239.29648985306267 124.88946680701338,239.02015506787575 125.18551823869348,238.74382007977692 125.65074191754684,238.35695075569674 126.07367253443226,237.85954675480025 126.5388962130528,237.5832109148323 127.04641295340843,237.19634039798984 127.42705050879158,236.80946948350174 127.89227418717928,236.4778655260452 128.35749786579981,235.9804590421263 128.86501460615546,235.59358687812346 129.37253134674393,235.26198184947134 129.88004808709957,234.875108947017 130.3452717657201,234.65403853848693 130.81049544434063,234.26716501114424 131.31801218469627,233.88029108630144 131.8678219865542,233.3828811699641 132.37533872690983,232.99600633617956 132.79826934379525,232.7196669258119 132.84056240553036,232.11171950862627 133.26349302218296,231.7248433684581 133.7710097625386,231.2826987215085 134.36311262636445,230.89582172912196 134.7437501817476,230.5089443392353 135.12438773689792,230.0667982637533 135.63190447725356,229.73518836661242 136.1394212176092,229.34830978384707 136.68923101969995,228.85089387878543 137.11216163658537,228.51928291027434 137.7042645001784,228.1876716495899 138.16948817903176,227.80079147627112 138.6347118576523,227.46917958263657 139.1422285977751,227.02702993675484 139.60745227662846,226.75068614436896 140.0303828935139,226.36380449394346 140.4533135103993,226.03219133455423 140.83395106554963,225.7558468117204 141.00312331225723,225.1478881474177 141.13000249746256,224.59519760042895 141.17229555919766,223.9872370614612 141.21458862093277,223.48981407214887 141.38376086764038,222.88185174766113 141.42605392937548,222.27388844141387 141.42605392937548,221.61065462371334 141.51064005261287,220.8921500025317 141.51064005261287,220.28418348249397 141.5529331145808,219.62094615900423 141.5952261760831,219.01297758572036 141.5529331145808,218.51554802263854 141.6375192378182,217.85230758273974 141.5952261760831,217.18906597411842 141.6375192378182,216.58109347283607 141.6798122995533,215.86257925073733 141.6798122995533,215.25460460671457 141.5952261760831,214.7018995328981 141.51064005261287,214.09392301429762 141.51064005261287,213.54121623618994 141.51064005261287,212.9332378426916 141.42605392937548,212.26998756628018 141.25688168243505,211.7725490918965 141.25688168243505,211.21983890482807 141.21458862093277,210.55658560912707 141.13000249746256,209.89333114455803 141.08770943572745,209.2853468588728 141.00312331225723,208.6773615909915 140.91853718901984,208.17991836860892 140.83395106554963,207.62720290591824 140.74936494231224,206.96394327946473 140.70707188057713,206.41122603107942 140.70707188057713,205.85850797127932 140.66477881884202,205.1952452280384 140.70707188057713,204.53198131581303 140.74936494231224,204.03453261469258 140.5378996336367,203.48181106467382 140.5378996336367,202.9843609756208 140.4110204486642,202.3763655294315 140.28414126345888,201.93418640622986 140.28414126345888,201.38146177175804 140.1149690169841,200.77346373631735 139.98808983177878,200.1654647186515 139.98808983177878,199.61273748672102 140.072675955249,199.11528228386305 140.1149690169841,198.5625535097497 139.98808983177878,198.06509691895917 139.77662452333607,197.5676396706258 139.69203839986585,196.95963547425345 139.64974533813074,196.46217676487868 139.64974533813074,195.96471739796107 139.60745227662846,195.30143721934292 139.48057309142314,194.7487028441392 139.43828002968803,194.25124121265253 139.39598696795292,193.64323165861424 139.3114008444827,193.0352211225545 139.39598696795292,192.48248341929866 139.3114008444827,191.92974490413326 139.35369390645064,191.37700557734934 138.9730563510675,190.87953948933864 138.8884702278301,190.3267986199353 138.76159104239196,189.66350850526942 138.71929798088968,189.00021722182282 138.76159104239196,188.39219918492017 138.9730563510675,187.78418016585056 139.0153494128026,187.2867093286768 138.9730563510675,186.733963182749 138.9307632893324,186.23649095743895 138.84617716586217,185.68374326935736 138.76159104239196,185.1862696557073 138.71929798088968,184.6887953845726 138.71929798088968,184.1360454231617 138.6347118576523,183.638569763978 138.59241879591718,183.0305430649605 138.59241879591718,182.42251538392156 138.6347118576523,181.8144867204246 138.50783267244697,181.2617325373867 138.46553961071186,180.76425307872705 138.42324654897675,180.21149735338986 138.38095348747447,179.60346511783428 138.29636736400425,178.99543189979158 138.25407430226915,178.44267357653007 138.21178124053404,177.83463848300744 138.16948817903176,177.28187845498906 138.04260899382643,176.78439373528818 138.00031593209133,176.17635596269974 137.95802287035622,175.67886978172464 137.91572980885394,175.1261065872386 137.95802287035622,174.5733425806684 137.83114368538372,174.07585428081802 137.873436746886,173.57836532307556 137.83114368538372,172.970322370762 137.7465575619135,172.4728319515707 137.7042645001784,171.86478721306776 137.7042645001784,171.3120184163272 137.5773853152059,170.75924880776438 137.5773853152059,170.2617554657627 137.4505061302334,169.70898431446403 137.4082130684983,169.15621235134313 137.4082130684983,168.60343957610894 137.32362694502808,167.99538858560845 137.28133388329297,167.44261410544277 137.23904082155786,166.94511637909454 137.1967477600556,166.39234035625122 137.11216163658537,165.89484124135925 137.06986857485026,165.28678587451577 137.02757551311515,164.73400741565274 136.94298938987777,164.18122814493836 136.90069632790983,163.6284480621689 136.85840326640755,163.02038903348148 136.85840326640755,162.4123290219868 136.77381714317016,161.80426802829606 136.73152408143505,161.25148445396917 136.68923101969995,160.64342158439104 136.56235183449462,160.20119342580438 136.60464489622973,159.64840749683208 136.47776571125723,159.0956207557174 136.47776571125723,158.4875544028473 136.39317958801985,157.9347659565974 136.3508865260519,157.38197669829242 136.3508865260519,156.9950237343146 136.39317958801985,156.55279128826805 136.3085934643168,156.38695398709388 136.05483509413898,156.44223309576046 135.58961141551845,156.6633494484995 135.12438773689792,156.71862851653714 134.44769874983467,156.71862851653714 133.89788894774392,156.71862851653714 133.4326652691234,156.55279128826805 132.79826934379525,156.38695398709388 132.33304566517472,156.27639574563364 131.6986497398466,156.11055832260172 131.10654687602073,156.0 130.5990301356651,156.11055832260172 129.96463421033695,156.16583747172263 129.4148244082462,156.16583747172263 128.82272154442035,156.16583747172263 128.1460325573571,156.27639574563364 127.63851581700146,156.27639574563364 127.04641295340843,156.38695398709388 126.5388962130528,156.44223309576046 125.86220722598955,156.49751219607424 125.27010436239652,156.60807037254563 124.76258762204088,156.60807037254563 124.29736394342035,156.77390757625108 123.66296801785938,156.77390757625108 123.24003740097396,156.88446567155188 122.60564147564583,156.88446567155188 122.1404177970253,156.93974470693502 121.54831493319944,156.93974470693502 120.95621206960641,156.71862851653714 120.36410920554772,156.60807037254563 119.85659246542491,156.44223309576046 119.30678266333416,156.33167487033643 118.75697286147624,156.44223309576046 118.20716305915266,156.60807037254563 117.65735325729474,156.71862851653714 116.9806642702315,156.82918662804877 116.47314752987586,157.16086076761712 116.30397528316826,157.71365035072085 116.30397528316826,158.32171795424074 116.26168222143315,158.9850633102178 116.26168222143315,159.64840749683208 116.17709609796293,160.31175051428727 116.09250997472554,160.91981391963782 116.09250997472554,161.47259798110463 116.17709609796293,161.97010294219945 116.17709609796293,162.5228854607558 116.30397528316826,162.96511089112028 116.30397528316826,163.4626138790627 116.38856140640564,163.96011620925856 116.43085446814075,164.40233995072776 116.51544059161097,164.9551188966725 116.60002671508119,165.3973414687207 116.64231977658346,165.8395635212364 116.64231977658346,166.28178505419055 116.68461283831857,166.7792836574663 116.68461283831857,167.3320591119409 116.76919896178879,167.71900144719984 116.8114920235239,168.3823302386154 116.89607814676128,168.8798260652402 117.02295733196661,169.26676680889796 117.107543455204,169.76426146604354 117.1498365169391,170.2617554657627 117.1498365169391,170.8698027942737 117.27671570214443,171.3120184163272 117.40359488711692,171.86478721306776 117.36130182561465,172.30700166575843 117.27671570214443,172.970322370762 117.27671570214443,173.7994716076937 117.40359488711692,174.51806613543886 117.48818101035431,175.07083022303414 117.53047407232225,175.73414605663856 117.53047407232225,176.3421845434932 117.74193938076496,176.83966984774452 117.78423244250007,177.3924305254768 117.82652550423518,177.8899144413008 117.82652550423518,178.44267357653007 117.95340468920767,179.0507076875947 117.95340468920767,179.60346511783428 117.86881856573746,180.21149735338986 117.95340468920767,180.65370199870085 117.95340468920767,181.09590612427564 118.08028387418017,181.7039359487826 118.20716305915266,182.1461388405005 118.29174918262288,182.64361647242913 118.46092142956331,183.14109344707686 118.4186283678282,183.69384486961644 118.50321449129842,184.19132045589504 118.5455075528007,184.6887953845726 118.63009367627092,185.2415445340739 118.6723867377732,185.62846845568856 118.6723867377732,186.0706667363993 118.75697286147624,186.62341385625768 118.75697286147624,187.12088557021343 118.88385204644874,187.61835662662634 118.96843816991895,188.28165034556878 119.13761041685939,188.7238455087354 119.5182479720097,189.05549154017353 120.06805777386762,189.11076585031697 120.53328145248815,188.94494289535214 120.95621206960641,188.8343942181964 121.50602187146433,188.77911986748222 122.01353861181997,188.7238455087354 122.52105535217561,188.7238455087354 122.98627903079614,188.66857114160666 123.45150270941667,188.55802238330944 123.95901944977231,188.44747359247413 124.50882925163023,188.33692476930446 125.0163459922187,188.2263759135385 125.65074191754684,188.44747359247413 126.20055171940476,188.55802238330944 126.7503615214955,188.8343942181964 127.34246438532136,188.94494289535214 127.8076880639419,188.77911986748222 128.35749786579981,188.8343942181964 128.73813542118296,188.55802238330944 129.2456521615386,188.44747359247413 129.75316890189424,188.44747359247413 130.21839258028194,188.28165034556878 130.72590932087041,188.2263759135385 131.27571912272833,188.28165034556878 131.8678219865542,188.39219918492017 132.37533872690983,188.28165034556878 132.96744159050286,188.28165034556878 133.47495833109133,188.28165034556878 134.06706119468436,188.2263759135385 134.57457793480717,188.2263759135385 134.9129224284552,188.17110147347557 135.42043916881084,188.0605525689898 135.9702489709016,188.00527810465428 136.5200587727595,187.8947291514487 137.11216163658537,187.9500036322279 137.66197143867612,187.9500036322279 138.25407430226915,187.9500036322279 138.8038841043599,187.78418016585056 138.6347118576523,187.78418016585056 138.16948817903176,187.78418016585056 137.7042645001784,187.72890566079877 137.1967477600556,187.83945466260775 136.646937957732,187.9500036322279 136.0971281558741,187.83945466260775 135.58961141551845,187.78418016585056 135.2089738601353,187.78418016585056 134.65916405827738,187.72890566079877 134.15164731792174,187.67363114771433 133.601837515831,187.78418016585056 133.09432077570818,187.9500036322279 132.58680403535254,187.83945466260775 132.0792872949969,187.78418016585056 131.65635667811148,187.83945466260775 131.10654687602073,187.9500036322279 130.55673707392998,188.0605525689898 130.04922033357434,188.11582702532178 129.4148244082462,188.2263759135385 128.94960072962567,188.28165034556878 128.44208398927003,188.39219918492017 127.89227418717928,188.39219918492017 127.38475744682364,188.39219918492017 126.79265458323061,188.39219918492017 126.28513784287497,188.55802238330944 125.77762110275216,188.44747359247413 125.22781130042858,188.55802238330944 124.72029456007294,188.44747359247413 124.12819169647992,188.50274799202452 123.66296801785938,188.50274799202452 123.11315821600147,188.55802238330944 122.60564147564583,188.55802238330944 122.09812473529018,188.66857114160666 121.59060799470171,188.6132967665908 121.0407981928438,188.55802238330944 120.53328145248815,188.6132967665908 119.94117858889513,188.66857114160666 119.43366184853949,188.66857114160666 119.17990347812884,188.39219918492017 119.09531735489145,188.0605525689898 119.05302429315634,187.56308209724375 118.92614510795102,187.12088557021343 118.92614510795102,186.62341385625768 118.75697286147624,186.18121622534818 118.5455075528007,185.51791880448582 118.5455075528007,185.1862696557073 118.63009367627092,184.63352042503539 118.5455075528007,184.02549533359706 118.50321449129842,183.47274439796456 118.46092142956331,182.97526786188246 118.3763353060931,182.47779066831572 118.3763353060931,181.98031281706062 118.2494561211206,181.42755887765088 118.20716305915266,180.81952860669116 118.20716305915266,180.4325997408596 118.03799081267789,179.82456786258263 117.95340468920767,179.32708650399582 117.86881856573746,178.77432866787422 117.69964631902985,178.22157001987216 117.69964631902985,177.72408654243918 117.53047407232225,177.33715449427837 117.53047407232225,176.78439373528818 117.53047407232225,176.1210797529202 117.48818101035431,175.45776460145134 117.3190087636467,174.73917186798644 117.1498365169391,174.02057776247966 116.55773365334608,173.9653012358176 116.00792385125533,173.9653012358176 115.5849932343699,174.13113079106552 115.07747649401426,174.02057776247966 114.56995975342579,173.9653012358176 114.23161526001059,174.07585428081802 113.80868464335799,174.07585428081802 113.34346096450463,173.9653012358176 112.79365116241388,174.2416837871715 112.32842748379335,174.18640729307663 111.82091074343771,174.07585428081802 111.3133940033149,173.9653012358176 110.76358420122415,174.13113079106552 110.2137743991334,174.35223675091402 109.91772296722047,174.40751322059077 109.45249928883277,174.5733425806684 108.86039642500691,174.62861901792348 108.18370743794367,174.51806613543886 107.63389763585292,174.62861901792348 107.33784620393999,174.46278968208935 106.91491558705457,174.35223675091402 106.2805196614936,174.40751322059077 105.8152959831059,174.46278968208935 105.30777924275026,174.5733425806684 104.7156763789244,174.5733425806684 104.20815963880159,174.62861901792348 103.70064289844595,174.73917186798644 103.19312615809031,174.79444828088162 102.68560941773467,174.6838954470877 102.22038573911414,174.5733425806684 101.7551620604936,174.73917186798644 101.28993838164024,174.84972468551132 100.74012857978232,174.84972468551132 100.14802571595646,174.79444828088162 99.72509509930387,174.84972468551132 99.21757835894823,174.90500108202104 98.75235468009487,175.0155538508552 98.24483793973923,175.07083022303414 97.8219073228538,175.07083022303414 97.27209752076305,175.07083022303414 96.72228771890514,175.07083022303414 96.13018485507928,174.96027747055632 95.53808199125342,174.84972468551132 95.03056525113061,174.79444828088162 94.56534157274291,174.79444828088162 94.10011789365672,174.84972468551132 93.5926011535339,174.90500108202104 93.08508441317827,174.90500108202104 92.61986073455773,175.0155538508552 92.11234399420209,175.0155538508552 91.39336194540374,174.96027747055632 90.8858452050481,174.84972468551132 90.33603540295735,174.84972468551132 89.78622560109943,174.84972468551132 89.27870886051096,174.79444828088162 88.81348518212326,174.90500108202104 88.34826150350273,174.84972468551132 87.8830378248822,174.96027747055632 87.37552108452655,174.96027747055632 86.91029740590602,175.0155538508552 86.40278066555038,175.07083022303414 85.81067780172452,175.1261065872386 85.34545412310399,175.181382943294 84.75335125951096,175.23665929108392 84.11895533395,175.34721196253668 83.56914553209208,175.40248828593758 83.01933573000133,175.40248828593758 82.892456544796,174.79444828088162 82.5964051131159,174.18640729307663 82.30035368120298,173.68891848172643 82.13118143449537,173.1361523642554 81.96200918755494,172.63866216444876 81.87742306431755,172.14117130695377 81.83513000258245,171.86478721306776 81.75054387934506,171.3672953324276 81.70825081737712,170.980356748536 81.66595775610767,170.42758665283327 81.53907857066952,169.98536999171483 81.49678550916724,169.43259843435953 81.58137163240463,168.8798260652402 81.49678550916724,168.32705288406578 81.20073407702148,167.77427889112732 81.07385489204898,167.22150408604648 80.90468264534138,166.61345086287474 80.77780346036889,166.1712297195627 80.65092427516356,165.61845256009838 80.77780346036889,165.12095242206124 81.07385489204898,164.73400741565274 80.94697570707649,164.18122814493836 80.90468264534138,163.73900414368836 80.77780346036889,163.29677962284768 80.82009652187116,162.74399824091233 80.86238958360627,162.19121604709653 80.77780346036889,161.63843304116745 80.65092427516356,161.0856492234161 80.60863121342845,160.5328645934933 80.56633815169334,160.09063630504534 80.48175202822313,159.48257155966712 80.60863121342845,158.9297845750989 80.27028672001325,158.76394832122605 79.7204769179225,158.81922708067577 79.17066711583175,158.87450583203463 78.6631503754761,158.9297845750989 78.19792669685557,158.9297845750989 77.81728914170526,158.9297845750989 77.3520654628519,158.87450583203463 76.9291348461993,158.9850633102178 76.46391116734594,159.04034203698393 76.04098055046052,159.04034203698393 75.49117074836977,159.04034203698393 74.94136094627902,159.0956207557174 74.51843032962643,159.04034203698393 73.96862052730285,159.0956207557174 73.54568991065025,159.0956207557174 73.122759293532,159.0956207557174 72.74212173838168,158.9850633102178 72.19231193629093,158.87450583203463 71.7270882576704,158.9297845750989 71.13498539407738,158.9850633102178 70.58517559198663,158.9297845750989 70.03536578989588,158.81922708067577 69.52784904954024,158.9297845750989 69.10491843265481,159.0956207557174 68.68198781576939,159.20617816894082 68.08988495194353,159.0956207557174 67.58236821182072,159.0956207557174 67.24402371817268,159.26145686334348 66.65192085457966,159.3167355497426 66.14440411399119,159.3167355497426 65.55230125039816,159.0956207557174 65.04478451004252,159.0956207557174 64.57956083142199,159.26145686334348 64.32580246124417,159.3167355497426 63.77599265938625,159.3167355497426 63.3953551040031,159.48257155966712 62.84554530191235,159.53785021352815 62.38032162329182,159.53785021352815 61.91509794467129,159.7036861263623 61.492167327785864,159.7036861263623 61.06923671066761,159.8695219657675 60.64630609401502,159.75896474756883 60.181082415394485,159.75896474756883 59.71585873654112,159.7036861263623 59.2929281196557,159.7036861263623 58.78541137930006,159.8695219657675 58.362480762647465,160.20119342580438 58.48935994761996,160.64342158439104 58.320187700679526,161.0856492234161 58.320187700679526,161.58315469598165 58.362480762647465,162.0806595107424 58.53165300912224,162.46760724534397 58.48935994761996,163.02038903348148 58.44706688588485,163.4626138790627 58.362480762647465,163.84956019272795 58.48935994761996,164.29178406397114 58.44706688588485,164.62345162648126 58.48935994761996,165.12095242206124 58.53165300912224,165.67373031255556 58.573946070857346,166.1712297195627 58.616239132592455,166.72400606732117 58.65853219432756,167.1662265607738 58.65853219432756,167.66372399491956 58.70082525606267,168.21649815043202 58.65853219432756,168.65871689023334 58.74311831779778,169.0456578610756 58.827704441035166,169.5984299868869 58.91229056450538,170.0406471026945 58.78541137930006,170.59341776676592 58.95458362624049,171.09091067037662 58.9968766879756,171.53312603244558 59.166048934683204,172.03061769373016 59.08146281121299,172.5281086973264 59.166048934683204,172.91504569008248 59.20834199641831,173.30198228478548 59.33522118162364,173.85474815859925 59.2929281196557,174.46278968208935 59.20834199641831,175.0155538508552 59.20834199641831,175.56831720791524 59.20834199641831,176.1210797529202 59.166048934683204,176.72911761462456 59.166048934683204,177.22660240737605 59.631272613303736,177.44770654852618 59.631272613303736,177.83463848300744 59.631272613303736,178.22157001987216 59.71585873654112,178.77432866787422 59.673565675038844,179.27181075699627 59.58897955156863,179.82456786258263 59.54668648983352,180.37732415623032 59.58897955156863,180.8748041263898 59.58897955156863,181.37228343900642 59.58897955156863,181.75921133867814 59.673565675038844,182.2566894821357 59.84273792174645,182.80944220375386 59.84273792174645,183.2516437965387 59.927324045216665,183.69384486961644 59.885030983481556,184.30187049685628 59.927324045216665,184.8546202146099 59.96961710671894,185.40736912065768 59.96961710671894,185.73901807464426 60.09649629192427,186.34704039763892 60.09649629192427,186.733963182749 60.05420323018916,187.12088557021343 60.09649629192427,187.61835662662634 60.22337547689676,188.0605525689898 60.47713384707458,188.44747359247413 60.5617199705448,188.8343942181964 60.5617199705448,189.3318630096328 60.64630609401502,189.77405693908804 60.7308922172524,190.21625034877798 60.77318527898751,190.71371731368708 60.90006446396001,191.21118362108245 61.238408957608044,191.59810140554328 61.57675345125608,191.92974490413326 62.16885631484911,191.7086492709641 62.46490774676204,191.81919710384682 62.84554530191235,191.92974490413326 63.35306204226799,191.76392319134902 63.860578782623634,191.92974490413326 64.32580246124417,191.7086492709641 64.8333192015998,191.4875535077299 65.25624981848523,191.59810140554328 65.67918043537065,191.4875535077299 66.0598179907538,191.4875535077299 66.65192085457966,191.4875535077299 67.1594375949353,191.59810140554328 67.70924739679322,191.59810140554328 68.04759189044125,191.59810140554328 68.597401692532,191.4322795465123 68.97803924768232,191.4875535077299 69.52784904954024,191.5428274606238 69.99307272816077,191.4875535077299 70.50058946851641,191.4875535077299 70.88122702389956,191.59810140554328 71.4310368259903,191.4875535077299 71.81167438114062,191.37700557734934 72.36148418299854,191.32173160012462 72.78441480011679,191.32173160012462 73.16505235526711,191.32173160012462 73.67256909562275,191.21118362108245 74.2223788977135,191.1006356095604 74.68760257633403,191.21118362108245 75.23741237842478,191.1006356095604 75.70263605704531,191.04536159159034 76.29473892063834,191.1559096193232 76.71766953752376,190.9900875656458 77.14060015464202,190.87953948933864 77.56353077152744,190.76899138026056 77.98646138841286,190.71371731368708 78.32480588182807,190.54789506510133 78.74773649894632,190.49262096601888 79.21296017756686,190.6031691560638 79.5513046712149,190.43734685870004 79.93194222636521,190.38207274346496 80.39716590498574,190.43734685870004 80.94697570707649,190.54789506510133 81.49678550916724,191.04536159159034 81.66595775610767,191.65337534237187 81.79283694084734,192.20611426330288 81.91971612581983,192.75885237235343 81.96200918755494,193.31158966996009 82.13118143449537,193.80905254359823 82.21576755796559,194.36178829858545 82.25806061946787,194.8039763182751 82.3849398046732,195.30143721934292 82.46952592814341,195.74362413492054 82.51181898964569,196.2410837940406 82.51181898964569,196.79381597758038 82.5541120513808,197.29127424850594 82.5964051131159,197.7334588264057 82.6809912363533,198.23091585552902 82.51181898964569,198.67309932952048 82.51181898964569,199.00473659406998 82.5541120513808,199.55746471887687 82.5541120513808,199.9996466343291 82.63869817485102,200.607645919692 82.6809912363533,201.10509915015427 82.97704266826622,201.49200676358305 83.10392185323872,201.93418640622986 82.97704266826622,202.54218256665627 82.97704266826622,202.9843609756208 82.97704266826622,203.5370832562039 83.01933573000133,204.03453261469258 83.01933573000133,204.53198131581303 83.10392185323872,204.9741573871579 83.10392185323872,205.4716048463597 83.14621491497383,205.91377981382539 83.23080103844404,206.3559542617295 83.23080103844404,206.85339989466593 83.35768022364937,207.35084487026324 83.35768022364937,207.84828918837593 83.35768022364937,208.06937534097233 83.39997328515165,208.73263301950647 83.52685247035697,209.2300755114411 83.56914553209208,209.8380598864751 83.52685247035697,210.28022972433246 83.44226634688675,210.83294129100977 83.65373165532947,211.33038100716658 83.6960247172974,211.71727810960147 83.78061084053479,212.15944573987508 83.78061084053479,212.65688370278804 83.78061084053479,213.1543210085074 83.78061084053479,213.65175765677122 83.90749002574012,214.20446427259594 83.94978308747523,214.7018995328981 83.9920761489775,215.25460460671457 83.86519696377218,215.80730886905803 83.90749002574012,216.3047420111834 83.8229039022699,216.80217449594056 83.90749002574012,217.2996063232713 83.94978308747523,217.7417673956952 84.11895533395,218.23919798136922 84.28812758089043,218.68135795017588 84.62647207430564,218.9024377395981 85.13398881489411,218.84716780442977 85.59921249351464,218.79189786117058 85.76838474022225,218.9024377395981 85.47233330830932,219.34459692926612 85.59921249351464,219.84202539673424 85.68379861675203,220.39472292276332 85.64150555478409,220.94741963752313 85.72609167848714,221.38957642496098 85.59921249351464,221.9422716787376 85.43004024657421,222.2186190012726 85.38774718507193,222.88185174766113 85.30316106136888,223.37927554055932 85.26086799963377,223.8766986761475 85.13398881489411,224.31885202266858 85.13398881489411,224.8715429752483 85.13398881489411,225.31369515316328 85.2185749381315,225.81111573247472 85.13398881489411,226.30853565435973 85.30316106136888,226.69541736142128 85.30316106136888,227.35864221982774 85.43004024657421,227.80079147627112 85.47233330830932,228.1876716495899 85.34545412310399,228.6298199322482 85.34545412310399,229.01669925346505 85.30316106136888,229.51411493934575 85.30316106136888,229.95626166378497 85.30316106136888,230.45367610824178 85.26086799963377,231.06162620303803 85.17628187639639,231.61430725545506 85.13398881489411,232.16698749628267 85.17628187639639,232.4985952512361 85.2185749381315,232.83020271421992 85.26086799963377,233.3276133609761 85.26086799963377,233.7697556060739 85.17628187639639,234.15662964453804 85.2185749381315,234.5435032856767 85.2185749381315,235.09617922556936 85.26086799963377,235.64885435451288 85.30316106136888,236.25679605876212 85.26086799963377,236.86473678128095 85.26086799963377,237.36214209668105 85.30316106136888,237.74901244332432 85.30316106136888,238.24641659023473 85.34545412310399,238.74382007977692 85.38774718507193,239.18595596333034 85.43004024657421,239.68335821156506 85.43004024657421,240.12549299161765 85.38774718507193,240.56762725222507 85.47233330830932,241.120294347842 85.51462637004443,241.56242744004703 85.5569194315467,242.00456001295242 85.59921249351464,242.5572249989491 85.68379861675203,243.05462279255153 85.43004024657421,243.55201992893126 85.2185749381315,243.93888391397195 85.34545412310399,244.38101369582 85.43004024657421,244.87840907956706 85.97985004866496,244.9889412978955 86.36048760381527,244.76787682884606 86.7834182207007,244.76787682884606 87.20634883781895,244.76787682884606 87.71386557794176,244.8231429583684 88.13679619506001,244.8231429583684 88.60201987368055,244.8231429583684 88.98265742883086,244.8231429583684 89.40558804571629,244.71261069137836 89.87081172456965,244.65734454564517 90.33603540295735,244.65734454564517 90.80125908157788,244.65734454564517 91.26648276043124,244.65734454564517 91.73170643905178,244.60207839182112 92.2815162409097,244.71261069137836 92.70444685802795,244.65734454564517 93.21196359838359,244.71261069137836 93.67718727700412,244.71261069137836 94.14241095562465,244.71261069137836 94.69222075748257,244.65734454564517 95.19973749783821,244.60207839182112 95.74954729992896,244.60207839182112 96.29935710178688,244.60207839182112 96.76458078040741,244.60207839182112 97.44126976747066,244.60207839182112 97.86420038458891,244.54681223002262 98.37171712494455,244.43627988212393 98.8792338653002,244.49154606016236 99.30216448218562,244.49154606016236 99.85197428427637,244.54681223002262 100.4863702096045,244.49154606016236 100.99388694996014,244.49154606016236 101.67057593702339,244.60207839182112 102.26267880084924,244.54681223002262 102.77019554120488,244.65734454564517 103.10854003462009,244.71261069137836 103.70064289844595,244.76787682884606 104.03898739186116,244.76787682884606 104.67338331718929,244.93367519273306 105.18090005777776,244.87840907956706 105.68841679790057,244.87840907956706 106.19593353825621,244.76787682884606 106.74574334034696,244.71261069137836 107.25326008046977,244.8231429583684 107.67619069758803,244.8231429583684 108.18370743794367,244.9889412978955 108.8181033632718,245.04420739473426 109.36791316536255,245.09947348356945 109.79084378224798,245.09947348356945 110.34065358433872,244.9889412978955 110.89046338619664,244.9889412978955 111.39798012678511,244.93367519273306 111.86320380517282,245.1547395643429 112.32842748379335,245.32053775779787 112.79365116241388,245.1547395643429 113.38575402623974,245.21000563702546 113.85097770486027,245.26527170147165 114.2739083217457,244.9889412978955 114.65454587712884,244.60207839182112 115.11976955574937,244.38101369582 115.50040711113252,244.10468264314113 115.79645854257978,243.82835138737573 116.17709609796293,243.441487288801 116.47314752987586,243.10988917344366 116.853785085259,242.83355718763778 117.3190087636467,242.61249145303736 117.69964631902985,242.3361591019202 118.12257693591528,242.00456001295242 118.46092142956331,241.72822721573175 118.79926592321135,241.5071608319995 118.92614510795102,241.00976099353284 119.34907572506927,240.6781607362209 119.85659246542491,240.51236049790168 120.27952308231033,240.18075980251888 120.53328145248815,239.79389195531257 120.9139190078713,239.5175575350877 121.42143574822694,239.29648985306267 121.71748717990704,238.96488808651338 122.30959004350007,238.79908709350275 122.73252066061832,238.63328602784895 122.90169290732592,238.24641659023473 123.53608883265406,238.5780189896177 123.49379577138461,238.96488808651338 123.02857209229842,239.29648985306267 122.6479345371481,239.68335821156506 122.26729698199779,240.01495934530976 121.88665942684747,240.40182696538977 121.37914268649183,240.62289399825386 120.95621206960641,240.95449430428562 120.53328145248815,241.1755610127293 120.19493695907295,241.6729606319568 119.72971328045242,241.89402691848227 119.26448960183188,242.11509307520464 118.88385204644874,242.5572249989491 118.50321449129842,242.8888236010971 118.08028387418017,243.05462279255153 117.69964631902985,243.49675361282425 117.27671570214443,243.71781882841606 116.89607814676128,244.10468264314113 116.47314752987586,244.43627988212393 116.05021691299044,244.76787682884606 115.62728629610501,245.04420739473426 115.28894180245697,245.37580380617874 114.73913200036623,245.6521339258179 114.31620138371363,245.9284638427489 114.10473607503809,246.20479355659336 113.59721933468245,246.53638894562027 113.08970259455964,246.64692067727447 112.79365116241388,246.97851567677571 112.37072054552846,247.53117336024297 111.90549686690792,247.696970507066 111.52485931175761,247.696970507066 111.01734257140197,247.80750189785613 110.25606746086851,248.08383023249917 109.62167153554037,248.8575484904286 109.32562010362744,250.1286536048283 108.98727561021224,250.3497149258328 108.86039642500691,250.18391894732486 108.6489311165642,250.4602455374552 108.26829356141388,250.6813066638424 107.92994906776585,251.01289810976596 107.54931151261553,251.17869372296263 107.12638089549728,251.51028473078622 106.83032946381718,251.84187544652377 106.40739884669892,252.06293576137978 105.9844682298135,252.339260972396 105.64612373616546,252.67085095780203 105.26548618101515,252.89191078595468 104.96943474910222,253.22350028457004 104.50421107048169,253.49982464389177 104.12357351533137,253.72088398502092 103.61605677497573,253.88667840595008 103.23541921959259,254.1630022781028 102.8547816646751,254.54985535875312 102.38955798605457,254.71564941454562 101.96662736893632,255.04723730674596 101.54369675181806,255.43408947862918 101.28993838164024,255.76567673817044 100.95159388822503,256.04199923126725 100.52866327133961,256.37358595523983 100.23261183942668,256.7051723872137 99.76738816080615,256.9262298462854 99.42904366715811,257.20255148771685 99.0484061120078,257.47887292597443 98.66776855685748,257.865722599061 98.28713100170717,258.08677937684115 98.03337263129652,258.5288925424975 97.5258558911737,258.7499489307229 97.14521833579056,259.1367972976004 96.76458078040741,259.4131173164933 96.42623628699221,259.68943713221233 95.96101260837168,260.0210206436168 95.53808199125342,260.4078677044308 95.19973749783821,260.6841867901967 94.73451381921768,260.9605056732544 94.31158320233226,261.40261546403053 93.97323870868422,261.7894611051306 93.5503080917988,262.17630634867237 93.21196359838359,262.6184147117892" stroke="#4dd2ff" stroke-linecap="round" stroke-linejoin="round" stroke-width="0.5"><title>2020-09-06 10.1km</title></polyline></svg>